<?xml version="1.0" standalone="no"?>
<!DOCTYPE svg PUBLIC "-//W3C//DTD SVG 20010904//EN"
 "http://www.w3.org/TR/2001/REC-SVG-20010904/DTD/svg10.dtd">
<svg version="1.0" xmlns="http://www.w3.org/2000/svg"
 width="596.000000pt" height="594.000000pt" viewBox="0 0 596.000000 594.000000"
 preserveAspectRatio="xMidYMid meet">
<metadata>
Created by potrace 1.16, written by Peter Selinger 2001-2019
</metadata>
<g transform="translate(0.000000,594.000000) scale(0.100000,-0.100000)"
fill="#000000" stroke="none">
<path d="M3786 5690 c-51 -33 -76 -86 -76 -160 1 -97 22 -134 163 -278 68 -70
131 -139 141 -154 l18 -28 21 28 c11 15 75 83 142 152 138 143 167 190 167
279 1 111 -62 181 -163 181 -67 0 -109 -24 -141 -79 l-22 -39 -21 36 c-31 56
-77 82 -144 82 -39 0 -65 -6 -85 -20z"/>
<path d="M3777 4963 c-4 -3 -7 -125 -7 -270 0 -144 -2 -263 -5 -263 -2 0 -197
106 -433 235 l-429 236 -1278 -703 c-888 -488 -1285 -712 -1299 -731 -43 -58
-34 -83 130 -354 156 -257 185 -293 245 -293 25 0 157 63 241 117 l38 23 0
-715 c0 -464 3 -715 10 -715 18 0 131 151 254 340 164 252 430 648 529 789 90
128 78 115 440 466 161 156 284 285 328 343 77 100 102 121 125 101 17 -14 17
-63 0 -154 -8 -38 -13 -71 -12 -73 2 -1 48 48 102 109 132 149 195 195 206
151 6 -21 -15 -204 -31 -273 -14 -62 -57 -179 -93 -257 -26 -54 -29 -70 -23
-112 9 -66 41 -112 85 -123 130 -33 232 -73 294 -115 82 -55 124 -106 191
-231 89 -169 167 -232 345 -276 192 -48 444 -127 487 -151 46 -26 83 -90 83
-141 0 -27 -100 -239 -151 -321 -18 -29 -94 -78 -160 -103 -77 -30 -291 -50
-604 -58 -379 -9 -370 -4 -430 -236 -61 -236 -156 -449 -332 -745 -44 -74 -97
-165 -117 -203 l-38 -67 1136 0 1136 0 0 1401 c0 1116 3 1400 13 1397 6 -2 81
-41 165 -87 143 -78 157 -83 199 -78 30 3 53 13 68 28 12 13 88 133 169 266
130 215 146 246 146 286 0 29 -7 53 -20 70 -11 14 -263 158 -600 343 l-580
318 -2 415 -3 416 -256 3 c-140 1 -258 -1 -262 -5z"/>
<path d="M2281 2569 c-36 -44 -70 -78 -75 -76 -6 2 -20 27 -32 56 -34 84 -34
84 -126 -5 -46 -44 -134 -122 -196 -173 -61 -52 -125 -113 -140 -136 -16 -24
-55 -101 -87 -171 -113 -245 -253 -519 -296 -581 -53 -74 -256 -309 -310 -358
l-39 -35 0 -450 0 -450 692 2 692 3 12 60 c7 33 21 88 33 123 47 143 50 291
10 557 -35 229 -18 368 56 475 41 59 91 81 207 90 111 9 132 20 170 94 24 46
48 155 48 216 -1 44 -1 46 -76 100 -89 65 -115 93 -153 169 -36 71 -125 155
-197 187 l-57 25 6 70 c3 38 1 97 -4 132 -10 62 -46 148 -64 153 -6 1 -39 -33
-74 -77z"/>
</g>
</svg>
